<svg width="42" height="42" viewBox="0 0 42 42" fill="none" xmlns="http://www.w3.org/2000/svg">
  <g id="Group 1830">
    <rect id="Rectangle 1032" width="42" height="42" rx="10" fill="#54BCEB" />
    <g id="d0Z93s.tif">
      <path id="Vector"
        d="M21.0435 8.40042C24.8755 8.40042 28.7076 8.39648 32.5396 8.41028C32.7852 8.41028 33.0525 8.50886 33.2705 8.6311C33.4954 8.75728 33.594 8.99387 33.5999 9.2768C33.666 12.3081 32.4518 14.7549 30.2177 16.7423C28.8634 17.9469 27.5062 19.1496 26.1519 20.3542C25.3332 21.0827 24.9268 21.9956 24.9278 23.0928C24.9307 24.9214 24.9219 26.7511 24.9327 28.5797C24.9357 29.0509 24.7621 29.3891 24.3675 29.6493C22.5003 30.8835 20.6381 32.1266 18.7778 33.3707C18.4227 33.6083 18.0577 33.6891 17.6691 33.4782C17.2824 33.2682 17.1434 32.9261 17.1443 32.4953C17.1493 29.3871 17.1414 26.2789 17.1503 23.1707C17.1532 22.0074 16.7261 21.0581 15.8542 20.2892C14.3717 18.982 12.8743 17.6896 11.4313 16.3391C9.65976 14.6809 8.69016 12.6098 8.47316 10.1916C8.45146 9.94616 8.43666 9.70069 8.4337 9.45523C8.42581 8.82333 8.84108 8.4024 9.47334 8.40141C11.3109 8.40042 13.1495 8.40042 14.9871 8.40042C17.0062 8.40042 19.0244 8.40042 21.0435 8.40042ZM10.4666 10.3829C10.7329 12.1918 11.4905 13.7257 12.8181 14.9451C14.2562 16.2651 15.7289 17.5477 17.1887 18.843C18.4937 20.0003 19.126 21.4494 19.12 23.1914C19.1121 25.6194 19.1181 28.0464 19.1181 30.4744C19.1181 30.5602 19.125 30.645 19.1299 30.7534C19.1911 30.7189 19.2266 30.7012 19.2591 30.6795C20.4467 29.8889 21.6353 29.0992 22.816 28.2988C22.8949 28.2455 22.9511 28.1026 22.9511 28.0001C22.959 26.3676 22.956 24.7361 22.957 23.1036C22.957 21.4179 23.5843 20.0092 24.841 18.8854C26.0029 17.8464 27.1688 16.8122 28.3367 15.7801C29.0932 15.1117 29.8547 14.4503 30.409 13.5897C31.0393 12.6108 31.4477 11.553 31.6016 10.3819H10.4666V10.3829Z"
        fill="white" />
    </g>
  </g>
</svg>